<svg aria-hidden="true" xmlns="http://www.w3.org/2000/svg" xmlns:xlink="http://www.w3.org/1999/xlink"><symbol viewBox="0 0 30 30" id="facebook" xmlns="http://www.w3.org/2000/svg">
<path d="M15 0C6.71625 0 0 6.71625 0 15C0 23.2838 6.71625 30 15 30C23.2838 30 30 23.2838 30 15C30 6.71625 23.2838 0 15 0ZM18.75 10H17.0625C16.39 10 16.25 10.2762 16.25 10.9725V12.5H18.75L18.4888 15H16.25V23.75H12.5V15H10V12.5H12.5V9.615C12.5 7.40375 13.6638 6.25 16.2863 6.25H18.75V10Z"/>
</symbol><symbol viewBox="0 0 30 30" id="instagram" xmlns="http://www.w3.org/2000/svg">
<path d="M18.5363 7.8775C17.6138 7.835 17.3363 7.8275 15 7.8275C12.6637 7.8275 12.3875 7.83625 11.465 7.8775C9.09125 7.98625 7.98625 9.11 7.8775 11.465C7.83625 12.3875 7.82625 12.6637 7.82625 15C7.82625 17.3363 7.83625 17.6125 7.8775 18.5363C7.98625 20.885 9.08625 22.015 11.465 22.1237C12.3862 22.165 12.6637 22.175 15 22.175C17.3375 22.175 17.6138 22.1662 18.5363 22.1237C20.91 22.0162 22.0138 20.8888 22.1237 18.5363C22.165 17.6138 22.1737 17.3363 22.1737 15C22.1737 12.6637 22.165 12.3875 22.1237 11.465C22.0138 9.11125 20.9075 7.98625 18.5363 7.8775ZM15 19.4937C12.5188 19.4937 10.5062 17.4825 10.5062 15C10.5062 12.5188 12.5188 10.5075 15 10.5075C17.4813 10.5075 19.4937 12.5188 19.4937 15C19.4937 17.4813 17.4813 19.4937 15 19.4937ZM19.6713 11.38C19.0913 11.38 18.6213 10.91 18.6213 10.33C18.6213 9.75 19.0913 9.28 19.6713 9.28C20.2513 9.28 20.7212 9.75 20.7212 10.33C20.7212 10.9087 20.2513 11.38 19.6713 11.38ZM17.9163 15C17.9163 16.6112 16.61 17.9163 15 17.9163C13.39 17.9163 12.0837 16.6112 12.0837 15C12.0837 13.3888 13.39 12.0837 15 12.0837C16.61 12.0837 17.9163 13.3888 17.9163 15ZM15 0C6.71625 0 0 6.71625 0 15C0 23.2838 6.71625 30 15 30C23.2838 30 30 23.2838 30 15C30 6.71625 23.2838 0 15 0ZM23.6975 18.6075C23.5538 21.7887 21.7825 23.5513 18.6087 23.6975C17.675 23.74 17.3762 23.75 15 23.75C12.6237 23.75 12.3263 23.74 11.3925 23.6975C8.2125 23.5513 6.44875 21.7862 6.3025 18.6075C6.26 17.675 6.25 17.3762 6.25 15C6.25 12.6237 6.26 12.3263 6.3025 11.3925C6.44875 8.2125 8.21375 6.44875 11.3925 6.30375C12.3263 6.26 12.6237 6.25 15 6.25C17.3762 6.25 17.675 6.26 18.6087 6.30375C21.79 6.45 23.555 8.21875 23.6975 11.3925C23.74 12.3263 23.75 12.6237 23.75 15C23.75 17.3762 23.74 17.675 23.6975 18.6075Z"/>
</symbol><symbol viewBox="0 0 30 30" id="twitter" xmlns="http://www.w3.org/2000/svg">
<path d="M15 0C6.71625 0 0 6.71625 0 15C0 23.2838 6.71625 30 15 30C23.2838 30 30 23.2838 30 15C30 6.71625 23.2838 0 15 0ZM22.5825 12.0563C22.8113 17.1063 19.045 22.7362 12.3775 22.7362C10.35 22.7362 8.46375 22.1413 6.875 21.1225C8.78 21.3475 10.6812 20.8175 12.19 19.6362C10.62 19.6075 9.29375 18.5688 8.835 17.1425C9.39875 17.25 9.95375 17.2188 10.4575 17.0812C8.73125 16.7337 7.53875 15.1788 7.5775 13.515C8.0625 13.7838 8.615 13.945 9.20375 13.9637C7.605 12.895 7.1525 10.7837 8.0925 9.17C9.8625 11.3425 12.5087 12.7712 15.4925 12.9212C14.9688 10.6762 16.6725 8.5125 18.9912 8.5125C20.0225 8.5125 20.9562 8.94875 21.6112 9.64625C22.4287 9.48625 23.1988 9.18625 23.8913 8.775C23.6225 9.61375 23.0538 10.3162 22.3125 10.7613C23.0387 10.6737 23.7313 10.4812 24.3738 10.195C23.8938 10.9175 23.2862 11.55 22.5825 12.0563Z"/>
</symbol></svg>